<svg xmlns="http://www.w3.org/2000/svg" width="144" height="161" viewBox="0 0 144 161"><defs><clipPath id="n4xna"><path fill="#fff" d="M135.047 34.111L81.477 3.256a18.02 18.02 0 0 0-17.98 0L9.93 34.11A17.93 17.93 0 0 0 .938 49.647v61.711a17.929 17.929 0 0 0 8.992 15.536l53.566 30.855a18.006 18.006 0 0 0 8.99 2.403c3.105 0 6.21-.801 8.991-2.403l53.57-30.855a17.931 17.931 0 0 0 8.99-15.536v-61.71c0-6.41-3.427-12.332-8.99-15.537z"/></clipPath></defs><g><g><g><path fill="#eaeaea" d="M135.047 34.111L81.477 3.256a18.02 18.02 0 0 0-17.98 0L9.93 34.11A17.93 17.93 0 0 0 .938 49.647v61.711a17.929 17.929 0 0 0 8.992 15.536l53.566 30.855a18.006 18.006 0 0 0 8.99 2.403c3.105 0 6.21-.801 8.991-2.403l53.57-30.855a17.931 17.931 0 0 0 8.99-15.536v-61.71c0-6.41-3.427-12.332-8.99-15.537z"/><path fill="none" stroke="#010101" stroke-linecap="round" stroke-linejoin="round" stroke-miterlimit="50" stroke-width="4" d="M135.047 34.111L81.477 3.256a18.02 18.02 0 0 0-17.98 0L9.93 34.11A17.93 17.93 0 0 0 .938 49.647v61.711a17.929 17.929 0 0 0 8.992 15.536l53.566 30.855a18.006 18.006 0 0 0 8.99 2.403c3.105 0 6.21-.801 8.991-2.403l53.57-30.855a17.931 17.931 0 0 0 8.99-15.536v-61.71c0-6.41-3.427-12.332-8.99-15.537z" clip-path="url(&quot;#n4xna&quot;)"/></g><g><path fill="#1a1a1a" d="M43.94 56.999h57.12a3.932 3.932 0 0 1 3.94 3.925v33.37a3.933 3.933 0 0 1-3.94 3.927H77.425v7.852h7.879v3.925H59.697v-3.925h7.879V98.22H43.939A3.933 3.933 0 0 1 40 94.295v-33.37a3.932 3.932 0 0 1 3.94-3.926zm0 5.888v29.445c0 1.084.881 1.963 1.97 1.963h53.18c1.089 0 1.97-.879 1.97-1.963V62.887a1.966 1.966 0 0 0-1.97-1.963H45.91c-1.089 0-1.97.879-1.97 1.963z"/></g><g><g><text dominant-baseline="text-before-edge" style="text-transform:uppercase" fill="#111" font-family="'OpenSans','OpenSans-Bold'" font-size="21" font-style="none" font-weight="700" transform="translate(57 71)"><tspan style="font-kerning:normal" letter-spacing="1.57">&lt;</tspan><tspan style="font-kerning:normal" letter-spacing="1.57"> &gt;</tspan></text></g></g></g></g></svg>